<svg xmlns="http://www.w3.org/2000/svg" width="132.153" height="29.054" viewBox="0 0 132.153 29.054">
    <defs>
        <style>
            .cls-1{fill:#fff}
        </style>
    </defs>
    <g id="RapsodoCoachConnectLogoDark" transform="translate(0 .049)">
        <g id="rapsodo_logo" transform="translate(0 -.049)">
            <g id="XMLID_8_">
                <g id="XMLID_9_">
                    <g id="XMLID_10_">
                        <g id="XMLID_57_" transform="translate(18.611 6.486)">
                            <g id="XMLID_58_">
                                <path id="XMLID_59_" d="M207.158 62.336a3.445 3.445 0 0 0 3.455 3.489 4.09 4.09 0 0 0 .663-.057 3.448 3.448 0 1 0-4.118-3.432m12.057-7.493V69.92H213.9v-1.67a5.426 5.426 0 0 1-4.656 2.162 7.76 7.76 0 0 1-7.63-8.087 7.654 7.654 0 0 1 7.584-7.984 6.028 6.028 0 0 1 4.69 1.968v-1.466z" class="cls-1" transform="translate(-201.61 -54.34)"/>
                            </g>
                        </g>
                        <g id="XMLID_52_" transform="translate(37.874 6.359)">
                            <g id="XMLID_53_">
                                <path id="XMLID_54_" d="M223.869 62.357a3.443 3.443 0 1 0 3.432-3.432 3.461 3.461 0 0 0-3.432 3.432m-5.159 14.688v-22.2h5.331v1.67a5.426 5.426 0 0 1 4.659-2.165c4.3 0 7.618 3.535 7.618 8.087a7.675 7.675 0 0 1-7.584 7.984 6.028 6.028 0 0 1-4.69-1.968v8.591z" class="cls-1" transform="translate(-218.71 -54.35)"/>
                            </g>
                        </g>
                        <g id="XMLID_50_" transform="translate(55.313 6.44)">
                            <path id="XMLID_51_" d="M245 58.738a6.38 6.38 0 0 0-2.894-.732c-.972 0-1.624.469-1.624 1.064 0 .663.4.869 2.391 1.293 2.986.595 4.393 2.025 4.393 4.461 0 3.42-2.825 5.651-7.184 5.651a11.479 11.479 0 0 1-6.017-1.727l1.933-3.763a8.376 8.376 0 0 0 4.255 1.533c.972 0 1.67-.5 1.67-1.2s-.469-.961-2.265-1.361c-3.192-.663-4.427-1.83-4.427-4.2 0-3.363 2.562-5.456 6.726-5.456a11.574 11.574 0 0 1 4.862.961z" class="cls-1" transform="translate(-234.06 -54.3)"/>
                        </g>
                        <g id="XMLID_45_" transform="translate(69.31 6.428)">
                            <g id="XMLID_46_">
                                <path id="XMLID_47_" d="M252.027 62.309a3.449 3.449 0 1 0 3.432-3.42 3.461 3.461 0 0 0-3.432 3.42m12.526.057c0 4.793-3.763 8.122-9.151 8.122-5.3 0-8.991-3.4-8.991-8.248a7.822 7.822 0 0 1 2.723-5.857 9.917 9.917 0 0 1 6.326-2.093c5.331 0 9.094 3.363 9.094 8.076" class="cls-1" transform="translate(-246.41 -54.29)"/>
                            </g>
                        </g>
                        <g id="XMLID_40_" transform="translate(88.596)">
                            <g id="XMLID_41_">
                                <path id="XMLID_42_" d="M268.959 63.169a3.443 3.443 0 1 0 3.42-3.409 3.445 3.445 0 0 0-3.42 3.409M281 48.55v22.2h-5.331v-1.67a5.426 5.426 0 0 1-4.656 2.162 7.751 7.751 0 0 1-7.618-8.087 7.654 7.654 0 0 1 7.584-7.984 6.028 6.028 0 0 1 4.69 1.968V48.55z" class="cls-1" transform="translate(-263.4 -48.55)"/>
                            </g>
                        </g>
                        <g id="XMLID_35_" transform="translate(107.421 6.428)">
                            <g id="XMLID_36_">
                                <path id="XMLID_37_" d="M285.607 62.309a3.443 3.443 0 1 0 3.432-3.42 3.459 3.459 0 0 0-3.432 3.42m12.514.057c0 4.793-3.764 8.122-9.151 8.122-5.285 0-8.98-3.4-8.98-8.248a7.822 7.822 0 0 1 2.723-5.857 9.916 9.916 0 0 1 6.326-2.093c5.319 0 9.083 3.363 9.083 8.076" class="cls-1" transform="translate(-279.99 -54.29)"/>
                            </g>
                        </g>
                        <g id="XMLID_33_" transform="translate(7.413 .011)">
                            <path id="XMLID_34_" d="M195.012 48.56h-3.192v4.232h1.064c3.169 0 3.706 1.693 3.706 2.963s-1.064 2.848-3.706 2.848h-1.064v3.707l5.285 8.465h7.4l-7-9.094a5.763 5.763 0 0 0 2.837-1.327 6.331 6.331 0 0 0 2.048-4.93c0-2.642-1.579-6.863-7.378-6.863" class="cls-1" transform="translate(-191.82 -48.56)"/>
                        </g>
                        <g id="XMLID_31_" transform="translate(0 .011)">
                            <path id="XMLID_32_" d="M0 0H6.349V1.052H0z" class="cls-1"/>
                        </g>
                        <g id="XMLID_29_" transform="translate(0 20.956)">
                            <path id="XMLID_30_" d="M0 0H6.349V1.052H0z" class="cls-1"/>
                        </g>
                        <g id="XMLID_27_" transform="translate(2.116 4.232)">
                            <path id="XMLID_28_" d="M0 0H4.232V1.052H0z" class="cls-1"/>
                        </g>
                        <g id="XMLID_25_" transform="translate(2.116 14.669)">
                            <path id="XMLID_26_" d="M0 0H4.232V1.064H0z" class="cls-1"/>
                        </g>
                        <g id="XMLID_23_" transform="translate(0 10.478)">
                            <path id="XMLID_24_" d="M0 0H6.349V1.052H0z" class="cls-1"/>
                        </g>
                        <g id="XMLID_21_" transform="translate(2.116 2.116)">
                            <path id="XMLID_22_" d="M0 0H4.232V1.064H0z" class="cls-1"/>
                        </g>
                        <g id="XMLID_19_" transform="translate(2.116 12.574)">
                            <path id="XMLID_20_" d="M0 0H4.232V1.064H0z" class="cls-1"/>
                        </g>
                        <g id="XMLID_17_" transform="translate(2.116 6.287)">
                            <path id="XMLID_18_" d="M0 0H4.232V1.064H0z" class="cls-1"/>
                        </g>
                        <g id="XMLID_15_" transform="translate(2.116 16.765)">
                            <path id="XMLID_16_" d="M0 0H4.232V1.052H0z" class="cls-1"/>
                        </g>
                        <g id="XMLID_13_" transform="translate(2.116 8.382)">
                            <path id="XMLID_14_" d="M0 0H4.232V1.052H0z" class="cls-1"/>
                        </g>
                        <g id="XMLID_11_" transform="translate(2.116 18.861)">
                            <path id="XMLID_12_" d="M0 0H4.232V1.052H0z" class="cls-1"/>
                        </g>
                    </g>
                </g>
            </g>
            <g id="XMLID_2_" transform="translate(125.552)">
                <path id="XMLID_3_" d="M302.44 51.856a3.247 3.247 0 0 1-.961 2.356 3.3 3.3 0 0 1-5.639-2.356 3.125 3.125 0 0 1 .309-1.4 3.307 3.307 0 0 1 .881-1.144 3.14 3.14 0 0 1 2.07-.766 3.293 3.293 0 0 1 2.8 1.5 3.268 3.268 0 0 1 .54 1.81zm-3.317-2.825a2.573 2.573 0 0 0-1.933.835 2.784 2.784 0 0 0-.812 1.99 2.818 2.818 0 0 0 .812 2.013 2.735 2.735 0 0 0 3.924.011 2.8 2.8 0 0 0 .812-2.013 2.957 2.957 0 0 0-.32-1.3 2.687 2.687 0 0 0-.835-1.007 2.849 2.849 0 0 0-1.648-.53zm.343 3.146l1.247 1.59h-.892l-1.132-1.51v1.51h-.732v-3.821h.766a1.861 1.861 0 0 1 1.167.286 1.041 1.041 0 0 1 .412.858 1.112 1.112 0 0 1-.778 1.064zm-.789-.526h.126c.526 0 .789-.183.789-.538 0-.332-.252-.5-.755-.5h-.149v1.037z" class="cls-1" transform="translate(-295.84 -48.55)"/>
            </g>
        </g>
    </g>
</svg>
