<svg xmlns="http://www.w3.org/2000/svg" width="129" height="28.361" viewBox="0 0 129 28.361">
    <defs>
        <style>
            .cls-1{fill:#404040}.cls-2{fill:#c8102e}
        </style>
    </defs>
    <g id="RapsodoCoachConnectLogoDark" transform="translate(0 .049)">
        <g id="rapsodo_logo" transform="translate(0 -.049)">
            <g id="XMLID_8_">
                <g id="XMLID_9_">
                    <g id="XMLID_10_">
                        <g id="XMLID_57_" transform="translate(18.167 6.331)">
                            <g id="XMLID_58_">
                                <path id="XMLID_59_" d="M207.026 62.145a3.363 3.363 0 0 0 3.372 3.406 3.992 3.992 0 0 0 .648-.056 3.365 3.365 0 1 0-4.02-3.35m11.769-7.314v14.717H213.6v-1.63a5.3 5.3 0 0 1-4.545 2.11 7.575 7.575 0 0 1-7.448-7.895 7.472 7.472 0 0 1 7.4-7.794 5.884 5.884 0 0 1 4.578 1.921v-1.429z" class="cls-1" transform="translate(-201.61 -54.34)"/>
                            </g>
                        </g>
                        <g id="XMLID_52_" transform="translate(36.971 6.208)">
                            <g id="XMLID_53_">
                                <path id="XMLID_54_" d="M223.746 62.166a3.361 3.361 0 1 0 3.35-3.35 3.379 3.379 0 0 0-3.35 3.35M218.71 76.5V54.83h5.2v1.63a5.3 5.3 0 0 1 4.545-2.11 7.566 7.566 0 0 1 7.437 7.895 7.492 7.492 0 0 1-7.4 7.794 5.884 5.884 0 0 1-4.578-1.921V76.5z" class="cls-1" transform="translate(-218.71 -54.35)"/>
                            </g>
                        </g>
                        <g id="XMLID_50_" transform="translate(53.993 6.286)">
                            <path id="XMLID_51_" d="M244.735 58.632a6.227 6.227 0 0 0-2.825-.715c-.949 0-1.586.458-1.586 1.038 0 .648.391.849 2.334 1.262 2.914.581 4.288 1.976 4.288 4.355 0 3.339-2.758 5.516-7.012 5.516a11.2 11.2 0 0 1-5.874-1.688l1.887-3.674a8.176 8.176 0 0 0 4.154 1.5c.949 0 1.63-.491 1.63-1.172s-.458-.938-2.211-1.329c-3.115-.648-4.321-1.787-4.321-4.1 0-3.283 2.5-5.326 6.566-5.326a11.3 11.3 0 0 1 4.746.938z" class="cls-1" transform="translate(-234.06 -54.3)"/>
                        </g>
                        <g id="XMLID_45_" transform="translate(67.657 6.275)">
                            <g id="XMLID_46_">
                                <path id="XMLID_47_" d="M251.893 62.118a3.367 3.367 0 1 0 3.35-3.339 3.379 3.379 0 0 0-3.35 3.339m12.227.056c0 4.679-3.674 7.928-8.933 7.928-5.17 0-8.777-3.316-8.777-8.051a7.635 7.635 0 0 1 2.658-5.717 9.68 9.68 0 0 1 6.175-2.043c5.2 0 8.877 3.283 8.877 7.883" class="cls-1" transform="translate(-246.41 -54.29)"/>
                            </g>
                        </g>
                        <g id="XMLID_40_" transform="translate(86.483)">
                            <g id="XMLID_41_">
                                <path id="XMLID_42_" d="M268.827 62.82a3.361 3.361 0 1 0 3.339-3.328 3.363 3.363 0 0 0-3.339 3.328m11.758-14.27v21.674h-5.2v-1.63a5.3 5.3 0 0 1-4.545 2.11 7.566 7.566 0 0 1-7.437-7.894 7.472 7.472 0 0 1 7.4-7.794 5.885 5.885 0 0 1 4.578 1.921V48.55z" class="cls-1" transform="translate(-263.4 -48.55)"/>
                            </g>
                        </g>
                        <g id="XMLID_35_" transform="translate(104.859 6.275)">
                            <g id="XMLID_36_">
                                <path id="XMLID_37_" d="M285.473 62.118a3.361 3.361 0 1 0 3.35-3.339 3.376 3.376 0 0 0-3.35 3.339m12.216.056c0 4.679-3.674 7.928-8.933 7.928-5.159 0-8.766-3.316-8.766-8.051a7.635 7.635 0 0 1 2.658-5.717 9.68 9.68 0 0 1 6.175-2.043c5.192 0 8.866 3.283 8.866 7.883" class="cls-1" transform="translate(-279.99 -54.29)"/>
                            </g>
                        </g>
                        <g id="XMLID_33_" transform="translate(7.236 .011)">
                            <path id="XMLID_34_" d="M194.935 48.56h-3.115v4.132h1.038c3.093 0 3.618 1.653 3.618 2.892s-1.038 2.78-3.618 2.78h-1.038v3.618l5.159 8.263h7.221l-6.834-8.877a5.626 5.626 0 0 0 2.769-1.3 6.18 6.18 0 0 0 2-4.813c0-2.579-1.541-6.7-7.2-6.7" class="cls-1" transform="translate(-191.82 -48.56)"/>
                        </g>
                        <g id="XMLID_31_" transform="translate(0 .011)">
                            <path id="XMLID_32_" d="M0 0H6.197V1.027H0z" class="cls-2"/>
                        </g>
                        <g id="XMLID_29_" transform="translate(0 20.456)">
                            <path id="XMLID_30_" d="M0 0H6.197V1.027H0z" class="cls-2"/>
                        </g>
                        <g id="XMLID_27_" transform="translate(2.066 4.131)">
                            <path id="XMLID_28_" d="M0 0H4.132V1.027H0z" class="cls-2"/>
                        </g>
                        <g id="XMLID_25_" transform="translate(2.066 14.319)">
                            <path id="XMLID_26_" d="M0 0H4.132V1.038H0z" class="cls-2"/>
                        </g>
                        <g id="XMLID_23_" transform="translate(0 10.228)">
                            <path id="XMLID_24_" d="M0 0H6.197V1.027H0z" class="cls-2"/>
                        </g>
                        <g id="XMLID_21_" transform="translate(2.066 2.066)">
                            <path id="XMLID_22_" d="M0 0H4.132V1.038H0z" class="cls-2"/>
                        </g>
                        <g id="XMLID_19_" transform="translate(2.066 12.274)">
                            <path id="XMLID_20_" d="M0 0H4.132V1.038H0z" class="cls-2"/>
                        </g>
                        <g id="XMLID_17_" transform="translate(2.066 6.137)">
                            <path id="XMLID_18_" d="M0 0H4.132V1.038H0z" class="cls-2"/>
                        </g>
                        <g id="XMLID_15_" transform="translate(2.066 16.365)">
                            <path id="XMLID_16_" d="M0 0H4.132V1.027H0z" class="cls-2"/>
                        </g>
                        <g id="XMLID_13_" transform="translate(2.066 8.183)">
                            <path id="XMLID_14_" d="M0 0H4.132V1.027H0z" class="cls-2"/>
                        </g>
                        <g id="XMLID_11_" transform="translate(2.066 18.411)">
                            <path id="XMLID_12_" d="M0 0H4.132V1.027H0z" class="cls-2"/>
                        </g>
                    </g>
                </g>
            </g>
            <g id="XMLID_2_" transform="translate(122.557)">
                <path id="XMLID_3_" fill="#fff" d="M302.283 51.777a3.169 3.169 0 0 1-.938 2.3 3.222 3.222 0 0 1-5.5-2.3 3.051 3.051 0 0 1 .3-1.362A3.229 3.229 0 0 1 297 49.3a3.065 3.065 0 0 1 2.021-.748 3.215 3.215 0 0 1 2.736 1.463 3.19 3.19 0 0 1 .526 1.762zm-3.238-2.758a2.512 2.512 0 0 0-1.887.815 2.718 2.718 0 0 0-.793 1.943 2.751 2.751 0 0 0 .793 1.965 2.67 2.67 0 0 0 3.83.011 2.732 2.732 0 0 0 .793-1.965 2.886 2.886 0 0 0-.313-1.273 2.624 2.624 0 0 0-.815-.983 2.781 2.781 0 0 0-1.608-.513zm.335 3.071l1.217 1.552h-.871l-1.105-1.474v1.474h-.715v-3.73h.748a1.817 1.817 0 0 1 1.139.279 1.016 1.016 0 0 1 .4.837 1.086 1.086 0 0 1-.759 1.038zm-.771-.514h.123c.514 0 .771-.179.771-.525 0-.324-.246-.491-.737-.491h-.145v1.016z" transform="translate(-295.84 -48.55)"/>
            </g>
        </g>
    </g>
</svg>
